<?xml version="1.0" encoding="utf-8"?>
<!-- Generator: Adobe Illustrator 16.0.0, SVG Export Plug-In . SVG Version: 6.00 Build 0)  -->
<!DOCTYPE svg PUBLIC "-//W3C//DTD SVG 1.1//EN" "http://www.w3.org/Graphics/SVG/1.1/DTD/svg11.dtd">
<svg version="1.1" id="图层_1" xmlns="http://www.w3.org/2000/svg" xmlns:xlink="http://www.w3.org/1999/xlink" x="0px" y="0px"
	 width="199.5px" height="199.5px" viewBox="0 0 199.5 199.5" enable-background="new 0 0 199.5 199.5" xml:space="preserve">
<g>
	<g transform="scale(0.1953125, 0.1953125)">
		<path fill="#272636" d="M722.598,531.169c0.485-0.97,1.34-1.82,1.705-2.79c8.51-17.762,5.715-39.652-9.365-53.887L371.214,149.382
			c-18.73-17.76-48.29-16.91-66.045,1.82c-17.76,18.73-16.905,48.29,1.825,66.05l308.449,291.787L308.209,805.078
			c-18.61,17.89-19.095,47.44-1.215,66.05c9.12,9.49,21.405,14.35,33.57,14.35c11.675,0,23.35-4.38,32.35-13.14l340.564-328.269
			c0.605-0.61,0.85-1.58,1.58-2.19c0.485-0.49,0.975-0.85,1.585-1.34C719.438,537.739,720.773,534.339,722.598,531.169
			L722.598,531.169L722.598,531.169z"/>
	</g>
</g>
</svg>
