<svg xmlns="http://www.w3.org/2000/svg" xmlns:xlink="http://www.w3.org/1999/xlink" id="图层_1" width="196.5" height="196.5" x="0" y="0" enable-background="new 0 0 196.5 196.5" version="1.1" viewBox="0 0 196.5 196.5" xml:space="preserve"><g><g><path fill="#272636" d="M482.901,722.909c0.975,0.49,1.82,1.34,2.79,1.71c17.77,8.51,39.657,5.71,53.897-9.37l325.099-343.714 c17.76-18.73,16.91-48.29-1.82-66.05c-18.73-17.76-48.29-16.9-66.05,1.83L505.041,615.759L208.997,308.525 c-17.885-18.61-47.44-19.09-66.05-1.21c-9.49,9.12-14.35,21.4-14.35,33.57c0,11.67,4.38,23.35,13.14,32.35l328.274,340.559 c0.605,0.605,1.58,0.845,2.185,1.58c0.49,0.485,0.855,0.975,1.34,1.585C476.336,719.749,479.741,721.089,482.901,722.909 L482.901,722.909L482.901,722.909z" transform="scale(0.1953125, 0.1953125)"/></g></g></svg>