<?xml version="1.0" encoding="utf-8"?>
<!-- Generator: Adobe Illustrator 16.0.0, SVG Export Plug-In . SVG Version: 6.00 Build 0)  -->
<!DOCTYPE svg PUBLIC "-//W3C//DTD SVG 1.1//EN" "http://www.w3.org/Graphics/SVG/1.1/DTD/svg11.dtd">
<svg version="1.1" id="图层_1" xmlns="http://www.w3.org/2000/svg" xmlns:xlink="http://www.w3.org/1999/xlink" x="0px" y="0px"
	 width="200px" height="200px" viewBox="0 0 200 200" enable-background="new 0 0 200 200" xml:space="preserve">
<g>
	<g transform="scale(0.1953125, 0.1953125)">
		<path fill="#272636" d="M300.304,490.897c-0.487,0.97-1.34,1.825-1.705,2.795c-8.512,17.76-5.715,39.647,9.365,53.887
			l343.724,325.109c18.73,17.76,48.29,16.91,66.04-1.82c17.76-18.73,16.91-48.29-1.82-66.05L407.459,513.032L714.688,216.99
			c18.61-17.885,19.1-47.44,1.22-66.045c-9.12-9.49-21.41-14.355-33.57-14.355c-11.68,0-23.35,4.38-32.35,13.14L309.424,478.002
			c-0.61,0.61-0.85,1.58-1.58,2.19c-0.487,0.485-0.975,0.85-1.582,1.34C303.464,484.327,302.127,487.732,300.304,490.897
			L300.304,490.897L300.304,490.897z"/>
	</g>
</g>
</svg>
