<?xml version="1.0" encoding="utf-8"?>
<!-- Generator: Adobe Illustrator 18.0.0, SVG Export Plug-In . SVG Version: 6.00 Build 0)  -->
<!DOCTYPE svg PUBLIC "-//W3C//DTD SVG 1.1//EN" "http://www.w3.org/Graphics/SVG/1.1/DTD/svg11.dtd">
<svg version="1.1" id="图层_1" xmlns="http://www.w3.org/2000/svg" xmlns:xlink="http://www.w3.org/1999/xlink" x="0px" y="0px"
	 viewBox="0 0 44 44" enable-background="new 0 0 44 44" xml:space="preserve">
<g>
	<path fill="#CEE4F9" d="M37.4,12.7l-2.3,13c-0.1,0.8-0.9,1.5-1.8,1.5L9.9,30l-2-14.4L7,10.7h6.7l0,0H36c0.4,0,0.7,0.2,1,0.4
		C37.3,11.5,37.5,12.1,37.4,12.7z"/>
	<g>
		<ellipse fill="#0A7DE7" cx="14.3" cy="40.2" rx="3.1" ry="3.1"/>
		<ellipse fill="#0A7DE7" cx="35.9" cy="40.2" rx="3.1" ry="3.1"/>
		<path fill="#0A7DE7" d="M42.2,6.6c-0.7-0.8-1.7-1.2-2.8-1.2H15.7c-0.6,0-1.2,0.5-1.2,1.2c0,0.6,0.5,1.2,1.2,1.2h23.7
			c0.4,0,0.8,0.2,1,0.5c0.4,0.4,0.6,1.1,0.5,1.7l-2.4,13.8c-0.1,0.9-0.9,1.6-1.9,1.6l-24.9,3L9.5,12.9L8,4.4
			C7.7,2.3,5.9,0.7,3.9,0.7h-2c-0.6,0-1.2,0.5-1.2,1.2C0.7,2.5,1.3,3,1.9,3h2c0.9,0,1.7,0.8,1.8,1.7l1.5,8.5l2.6,18.3
			c0.3,2,2,3.7,4.1,3.7H39c0.6,0,1.2-0.5,1.2-1.2c0-0.6-0.5-1.2-1.2-1.2H13.9c-0.8,0-1.7-0.8-1.8-1.6L12,30.5l24.7-3
			c2,0,3.8-1.6,4.1-3.6l2.4-13.8C43.4,8.8,43,7.5,42.2,6.6z"/>
	</g>
</g>
</svg>
