<svg xmlns="http://www.w3.org/2000/svg" xmlns:xlink="http://www.w3.org/1999/xlink" id="图层_1" x="0" y="0" enable-background="new 0 0 44 44" version="1.1" viewBox="0 0 44 44" xml:space="preserve"><g><path fill="#040000" d="M43.3,10.9c0-5.6-4.6-10.2-10.2-10.2S22.9,5.3,22.9,10.9v10.2h10.2C38.7,21.1,43.3,16.5,43.3,10.9z M25.3,10.9c0-4.3,3.5-7.8,7.8-7.8c4.3,0,7.8,3.5,7.8,7.8c0,4.3-3.5,7.8-7.8,7.8h-7.8V10.9z"/><path fill="#040000" d="M10.9,0.7C5.3,0.7,0.7,5.3,0.7,10.9c0,5.6,4.6,10.2,10.2,10.2h10.2V10.9C21.1,5.3,16.5,0.7,10.9,0.7z M18.7,18.8c0,0-6.9,0-7.8,0c-1.5,0-7.8-1.7-7.8-7.9c0-4.3,3.5-7.8,7.8-7.8c4.3,0,7.8,3.5,7.8,7.8V18.8z"/><path fill="#040000" d="M0.7,33.1c0,5.6,4.6,10.2,10.2,10.2c5.6,0,10.2-4.6,10.2-10.2V22.9H10.9C5.3,22.9,0.7,27.5,0.7,33.1z M18.7,33.1c0,4.3-3.5,7.8-7.8,7.8c-4.3,0-7.8-3.5-7.8-7.8c0-4.3,3.6-7.9,7.8-7.9c2.5,0,7.8,0,7.8,0V33.1z"/><path fill="#040000" d="M33.1,22.9H22.9v10.2c0,5.6,4.6,10.2,10.2,10.2c1.6,0,3.1-0.4,4.5-1c0.6-0.3,0.8-1,0.5-1.6 c-0.3-0.6-1-0.8-1.6-0.5c-1.1,0.5-2.2,0.8-3.4,0.8c-4.3,0-7.8-3.5-7.8-7.8v-7.8h7.8c4.3,0,7.8,3.5,7.8,7.8c0,0.7-0.1,1.5-0.3,2.2 c-0.1,0.3-0.1,0.6,0.1,0.9c0.2,0.3,0.4,0.5,0.7,0.6c0.6,0.2,1.3-0.2,1.5-0.8c0.3-0.9,0.4-1.9,0.4-2.9 C43.3,27.5,38.7,22.9,33.1,22.9z"/></g></svg>