<?xml version="1.0" encoding="utf-8"?>
<!-- Generator: Adobe Illustrator 18.0.0, SVG Export Plug-In . SVG Version: 6.00 Build 0)  -->
<!DOCTYPE svg PUBLIC "-//W3C//DTD SVG 1.1//EN" "http://www.w3.org/Graphics/SVG/1.1/DTD/svg11.dtd">
<svg version="1.1" id="图层_1" xmlns="http://www.w3.org/2000/svg" xmlns:xlink="http://www.w3.org/1999/xlink" x="0px" y="0px"
	 viewBox="0 0 44 44" enable-background="new 0 0 44 44" xml:space="preserve">
<path fill="#040000" d="M40.3,16c-1.6-1.9-3.8-4.2-6.2-6.5c-2.4-2.3-4.9-4.4-6.9-5.9c-3.7-2.8-4.9-2.8-5.3-2.8c-0.8,0-2,0.3-5.3,3.1
	c-2.4,2-5,4.6-6.8,6.4c-2.2,2.2-4.4,4.6-6.1,6.6c-2.9,3.4-2.9,3.8-2.9,4.2c0,0.7,0,1.5,0.4,2.2c0.3,0.6,1,1.4,2.6,1.4h2.5l0.3,14.9
	c0,0.4,0,1.7,0.8,2.7c0.7,0.8,1.6,1.1,2.8,1.1l5.1,0c0,0,0.1,0,0.2,0c0.4,0,1.3-0.1,2-0.7c0.9-0.7,1.4-1.9,1.4-3.5l0-9.4
	c0,0,0-0.8,0.4-1.2c0.3-0.3,0.7-0.5,1.4-0.5l4.5,0c0.1,0,0.3,0,0.5,0.1c0.2,0.1,0.3,0.3,0.3,0.6l0,10.6c0,0.1,0,1,0.5,1.9
	c0.7,1.3,1.8,2,3.3,2h5c0.1,0,0.9,0,1.8-0.4c1.2-0.6,1.9-1.8,1.9-3.3c0-1.3,0.1-9.2,0-9.9c-0.1-0.5-0.5-0.8-1.1-0.8
	c-0.6,0-1.1,0.4-1.1,0.9v9.9c0,0.6-0.2,1-0.6,1.2c-0.4,0.2-0.8,0.2-0.8,0.2h-5c-0.6,0-1.1-0.2-1.3-0.7c-0.2-0.4-0.3-0.9-0.3-0.9
	V28.7c0-2.2-1.9-2.9-2.9-3l-4.6,0c-1.3,0-2.3,0.4-3,1.2c-1,1.1-1,2.6-0.9,2.9V39c0,0.9-0.2,1.9-1.2,1.9h0l-5.3,0
	c-0.5,0-0.9-0.1-1.1-0.4c-0.3-0.3-0.3-0.8-0.3-1.1L8.4,23.5c0,0,0,0,0,0v0l-0.1-0.1c-0.1-0.3-0.4-1.1-1.1-1.1H3.7
	c-0.4,0-0.6-0.1-0.6-0.1C3,21.9,3,21.5,3,21.2c0.5-0.9,3.8-4.8,8.7-9.7c2.4-2.5,4.7-4.5,6.4-6C21,3.1,21.8,3,21.9,3
	c0.1,0,1,0.1,4,2.3c2,1.5,4.3,3.5,6.7,5.8c2.3,2.2,4.5,4.5,6.1,6.3C40.9,20.2,41,21,41,21c0,0.8-0.2,1.1-0.4,1.2h-2.3l-0.1,0.1
	c-0.5,0.4-0.6,0.8-0.6,1.1c0,0.4,0.3,0.8,0.8,1.1l0.1,0.1h2.5l0.2-0.1c0.1,0,1.9-0.7,1.9-3.5C43.3,20.3,42.9,19.1,40.3,16z"/>
</svg>
