<svg xmlns="http://www.w3.org/2000/svg" xmlns:xlink="http://www.w3.org/1999/xlink" id="图层_1" x="0" y="0" enable-background="new 0 0 44 44" version="1.1" viewBox="0 0 44 44" xml:space="preserve"><path fill="#CEE4F9" d="M38.7,23.7h-2.2l0,0h-2.3l0,0V26v4.9V31v9.8c0,0.6-0.2,1-0.6,1.2c-0.4,0.2-0.8,0.2-0.8,0.2h-5	c-0.6,0-1-0.2-1.3-0.7c-0.2-0.4-0.3-0.9-0.3-0.9V30.2c0-2.2-1.8-2.9-2.8-3h-4.5c-1.3,0-2.3,0.4-3,1.2c-1,1.1-0.9,2.6-0.9,2.9v9.2	c0,0.9-0.2,1.9-1.1,1.9l0,0H8.7c-0.5,0-0.9-0.1-1.1-0.4c-0.3-0.3-0.3-0.8-0.3-1L7.1,24.9l0,0l0,0L7,24.8c-0.1-0.3-0.4-1.1-1.1-1.1	H2.4c-0.4,0-0.5-0.1-0.6-0.1c-0.1-0.2-0.1-0.6-0.1-0.9c0.5-0.9,3.7-4.8,8.5-9.6c2.4-2.4,4.6-4.5,6.3-5.9c2.9-2.4,3.6-2.4,3.7-2.4	s0.9,0.1,3.9,2.3c1.9,1.5,4.3,3.5,6.6,5.7s4.4,4.4,6,6.3c2.2,2.7,2.4,3.5,2.4,3.5C39.1,23.2,38.9,23.6,38.7,23.7z"/><path fill="#0A7DE7" d="M40.3,16c-1.6-1.9-3.8-4.2-6.2-6.5s-4.9-4.4-6.9-5.9c-3.7-2.8-4.9-2.8-5.3-2.8c-0.8,0-2,0.3-5.3,3.1	c-2.4,2-5,4.6-6.8,6.4c-2.2,2.2-4.4,4.6-6.1,6.6c-2.9,3.4-2.9,3.8-2.9,4.2c0,0.7,0,1.5,0.4,2.2c0.3,0.6,1,1.4,2.6,1.4h2.5l0.3,14.9	c0,0.4,0,1.7,0.8,2.7c0.7,0.8,1.6,1.1,2.8,1.1h5.1c0,0,0.1,0,0.2,0c0.4,0,1.3-0.1,2-0.7c0.9-0.7,1.4-1.9,1.4-3.5v-9.4	c0,0,0-0.8,0.4-1.2c0.3-0.3,0.7-0.5,1.4-0.5h4.5c0.1,0,0.3,0,0.5,0.1s0.3,0.3,0.3,0.6v10.6c0,0.1,0,1,0.5,1.9c0.7,1.3,1.8,2,3.3,2h5	c0.1,0,0.9,0,1.8-0.4c1.2-0.6,1.9-1.8,1.9-3.3c0-1.3,0.1-9.2,0-9.9c-0.1-0.5-0.5-0.8-1.1-0.8s-1.1,0.4-1.1,0.9v9.9	c0,0.6-0.2,1-0.6,1.2c-0.4,0.2-0.8,0.2-0.8,0.2h-5c-0.6,0-1.1-0.2-1.3-0.7c-0.2-0.4-0.3-0.9-0.3-0.9V28.7c0-2.2-1.9-2.9-2.9-3h-4.6	c-1.3,0-2.3,0.4-3,1.2c-1,1.1-1,2.6-0.9,2.9V39c0,0.9-0.2,1.9-1.2,1.9l0,0h-5.3c-0.5,0-0.9-0.1-1.1-0.4C9,40.2,9,39.7,9,39.4	L8.4,23.5l0,0l0,0l-0.1-0.1c-0.1-0.3-0.4-1.1-1.1-1.1H3.7c-0.4,0-0.6-0.1-0.6-0.1C3,21.9,3,21.5,3,21.2c0.5-0.9,3.8-4.8,8.7-9.7	c2.4-2.5,4.7-4.5,6.4-6C21,3.1,21.8,3,21.9,3s1,0.1,4,2.3c2,1.5,4.3,3.5,6.7,5.8c2.3,2.2,4.5,4.5,6.1,6.3C40.9,20.2,41,21,41,21	c0,0.8-0.2,1.1-0.4,1.2h-2.3l-0.1,0.1c-0.5,0.4-0.6,0.8-0.6,1.1c0,0.4,0.3,0.8,0.8,1.1l0.1,0.1H41l0.2-0.1c0.1,0,1.9-0.7,1.9-3.5	C43.3,20.3,42.9,19.1,40.3,16z"/></svg>